<?xml version="1.0" encoding="UTF-8"?>
<svg xmlns="http://www.w3.org/2000/svg" width="21" height="23" viewBox="0 0 21 23" shape-rendering="crispEdges">
  <rect x="0" y="0" width="21" height="1" fill="#181a1b"/>
  <rect x="0" y="1" width="13" height="1" fill="#181a1b"/>
  <rect x="13" y="1" width="1" height="1" fill="#17191a"/>
  <rect x="14" y="1" width="1" height="1" fill="#181a1c"/>
  <rect x="15" y="1" width="6" height="1" fill="#181a1b"/>
  <rect x="0" y="2" width="3" height="1" fill="#181a1b"/>
  <rect x="3" y="2" width="1" height="1" fill="#181b1c"/>
  <rect x="4" y="2" width="1" height="1" fill="#191c1f"/>
  <rect x="5" y="2" width="1" height="1" fill="#191c1e"/>
  <rect x="6" y="2" width="1" height="1" fill="#191b1c"/>
  <rect x="7" y="2" width="5" height="1" fill="#181a1b"/>
  <rect x="12" y="2" width="1" height="1" fill="#191b1c"/>
  <rect x="13" y="2" width="1" height="1" fill="#1b1c20"/>
  <rect x="14" y="2" width="1" height="1" fill="#171919"/>
  <rect x="15" y="2" width="1" height="1" fill="#191a1c"/>
  <rect x="16" y="2" width="5" height="1" fill="#181a1b"/>
  <rect x="0" y="3" width="2" height="1" fill="#181a1b"/>
  <rect x="2" y="3" width="1" height="1" fill="#181b1c"/>
  <rect x="3" y="3" width="1" height="1" fill="#171716"/>
  <rect x="4" y="3" width="1" height="1" fill="#13100b"/>
  <rect x="5" y="3" width="1" height="1" fill="#131310"/>
  <rect x="6" y="3" width="1" height="1" fill="#151716"/>
  <rect x="7" y="3" width="1" height="1" fill="#181a1b"/>
  <rect x="8" y="3" width="2" height="1" fill="#1b1c1e"/>
  <rect x="10" y="3" width="1" height="1" fill="#1c1c1f"/>
  <rect x="11" y="3" width="1" height="1" fill="#111715"/>
  <rect x="12" y="3" width="1" height="1" fill="#4b304c"/>
  <rect x="13" y="3" width="1" height="1" fill="#483b5a"/>
  <rect x="14" y="3" width="1" height="1" fill="#161e21"/>
  <rect x="15" y="3" width="1" height="1" fill="#171818"/>
  <rect x="16" y="3" width="1" height="1" fill="#191b1c"/>
  <rect x="17" y="3" width="4" height="1" fill="#181a1b"/>
  <rect x="0" y="4" width="1" height="1" fill="#181a1b"/>
  <rect x="1" y="4" width="1" height="1" fill="#191b1d"/>
  <rect x="2" y="4" width="1" height="1" fill="#161513"/>
  <rect x="3" y="4" width="1" height="1" fill="#22374a"/>
  <rect x="4" y="4" width="1" height="1" fill="#395e87"/>
  <rect x="5" y="4" width="1" height="1" fill="#313b52"/>
  <rect x="6" y="4" width="1" height="1" fill="#242630"/>
  <rect x="7" y="4" width="1" height="1" fill="#161918"/>
  <rect x="8" y="4" width="1" height="1" fill="#0c130d"/>
  <rect x="9" y="4" width="1" height="1" fill="#0b130e"/>
  <rect x="10" y="4" width="1" height="1" fill="#061109"/>
  <rect x="11" y="4" width="1" height="1" fill="#352737"/>
  <rect x="12" y="4" width="1" height="1" fill="#7f477f"/>
  <rect x="13" y="4" width="1" height="1" fill="#4c3652"/>
  <rect x="14" y="4" width="1" height="1" fill="#4f4366"/>
  <rect x="15" y="4" width="1" height="1" fill="#151919"/>
  <rect x="16" y="4" width="1" height="1" fill="#151918"/>
  <rect x="17" y="4" width="1" height="1" fill="#1a1b1d"/>
  <rect x="18" y="4" width="3" height="1" fill="#181a1b"/>
  <rect x="0" y="5" width="1" height="1" fill="#181a1b"/>
  <rect x="1" y="5" width="1" height="1" fill="#191c1e"/>
  <rect x="2" y="5" width="1" height="1" fill="#151310"/>
  <rect x="3" y="5" width="1" height="1" fill="#253b50"/>
  <rect x="4" y="5" width="1" height="1" fill="#69b1ff"/>
  <rect x="5" y="5" width="1" height="1" fill="#84a5ff"/>
  <rect x="6" y="5" width="1" height="1" fill="#9594f0"/>
  <rect x="7" y="5" width="1" height="1" fill="#9a7ed2"/>
  <rect x="8" y="5" width="1" height="1" fill="#8e63a7"/>
  <rect x="9" y="5" width="1" height="1" fill="#734a79"/>
  <rect x="10" y="5" width="1" height="1" fill="#49314b"/>
  <rect x="11" y="5" width="1" height="1" fill="#8c508e"/>
  <rect x="12" y="5" width="1" height="1" fill="#6e4070"/>
  <rect x="13" y="5" width="1" height="1" fill="#432d44"/>
  <rect x="14" y="5" width="1" height="1" fill="#65436b"/>
  <rect x="15" y="5" width="1" height="1" fill="#6a4470"/>
  <rect x="16" y="5" width="1" height="1" fill="#151718"/>
  <rect x="17" y="5" width="1" height="1" fill="#101713"/>
  <rect x="18" y="5" width="1" height="1" fill="#191b1c"/>
  <rect x="19" y="5" width="2" height="1" fill="#181a1b"/>
  <rect x="0" y="6" width="1" height="1" fill="#181a1b"/>
  <rect x="1" y="6" width="1" height="1" fill="#181b1c"/>
  <rect x="2" y="6" width="1" height="1" fill="#171818"/>
  <rect x="3" y="6" width="1" height="1" fill="#1b2329"/>
  <rect x="4" y="6" width="1" height="1" fill="#6496ea"/>
  <rect x="5" y="6" width="1" height="1" fill="#89a1fe"/>
  <rect x="6" y="6" width="1" height="1" fill="#a69cff"/>
  <rect x="7" y="6" width="1" height="1" fill="#c79bff"/>
  <rect x="8" y="6" width="1" height="1" fill="#ea99ff"/>
  <rect x="9" y="6" width="1" height="1" fill="#ff92ff"/>
  <rect x="10" y="6" width="1" height="1" fill="#ff91ff"/>
  <rect x="11" y="6" width="1" height="1" fill="#8c508e"/>
  <rect x="12" y="6" width="1" height="1" fill="#6c3f6e"/>
  <rect x="13" y="6" width="1" height="1" fill="#322735"/>
  <rect x="14" y="6" width="1" height="1" fill="#623c63"/>
  <rect x="15" y="6" width="1" height="1" fill="#79467a"/>
  <rect x="16" y="6" width="1" height="1" fill="#df76df"/>
  <rect x="17" y="6" width="1" height="1" fill="#5a355d"/>
  <rect x="18" y="6" width="1" height="1" fill="#0e1611"/>
  <rect x="19" y="6" width="1" height="1" fill="#1b1b1e"/>
  <rect x="20" y="6" width="1" height="1" fill="#181a1b"/>
  <rect x="0" y="7" width="2" height="1" fill="#181a1b"/>
  <rect x="2" y="7" width="1" height="1" fill="#191b1c"/>
  <rect x="3" y="7" width="1" height="1" fill="#151716"/>
  <rect x="4" y="7" width="1" height="1" fill="#6085cd"/>
  <rect x="5" y="7" width="1" height="1" fill="#92a4fe"/>
  <rect x="6" y="7" width="1" height="1" fill="#a896f8"/>
  <rect x="7" y="7" width="1" height="1" fill="#c492fa"/>
  <rect x="8" y="7" width="1" height="1" fill="#df8cf8"/>
  <rect x="9" y="7" width="1" height="1" fill="#f98af9"/>
  <rect x="10" y="7" width="1" height="1" fill="#ec7eec"/>
  <rect x="11" y="7" width="1" height="1" fill="#4f3351"/>
  <rect x="12" y="7" width="1" height="1" fill="#904f91"/>
  <rect x="13" y="7" width="1" height="1" fill="#08130c"/>
  <rect x="14" y="7" width="1" height="1" fill="#7d487f"/>
  <rect x="15" y="7" width="1" height="1" fill="#613963"/>
  <rect x="16" y="7" width="1" height="1" fill="#f880f8"/>
  <rect x="17" y="7" width="1" height="1" fill="#7e4580"/>
  <rect x="18" y="7" width="1" height="1" fill="#07130a"/>
  <rect x="19" y="7" width="1" height="1" fill="#1c1c1f"/>
  <rect x="20" y="7" width="1" height="1" fill="#181a1b"/>
  <rect x="0" y="8" width="2" height="1" fill="#181a1b"/>
  <rect x="2" y="8" width="1" height="1" fill="#1a1c1e"/>
  <rect x="3" y="8" width="1" height="1" fill="#11120d"/>
  <rect x="4" y="8" width="1" height="1" fill="#556aa3"/>
  <rect x="5" y="8" width="1" height="1" fill="#9ea8ff"/>
  <rect x="6" y="8" width="1" height="1" fill="#bb9eff"/>
  <rect x="7" y="8" width="1" height="1" fill="#db9bff"/>
  <rect x="8" y="8" width="1" height="1" fill="#f995ff"/>
  <rect x="9" y="8" width="1" height="1" fill="#ff93ff"/>
  <rect x="10" y="8" width="1" height="1" fill="#e87be9"/>
  <rect x="11" y="8" width="1" height="1" fill="#643c66"/>
  <rect x="12" y="8" width="1" height="1" fill="#985299"/>
  <rect x="13" y="8" width="1" height="1" fill="#000c00"/>
  <rect x="14" y="8" width="1" height="1" fill="#744476"/>
  <rect x="15" y="8" width="1" height="1" fill="#c569c6"/>
  <rect x="16" y="8" width="1" height="1" fill="#944e95"/>
  <rect x="17" y="8" width="1" height="1" fill="#231e26"/>
  <rect x="18" y="8" width="1" height="1" fill="#161919"/>
  <rect x="19" y="8" width="2" height="1" fill="#181a1b"/>
  <rect x="0" y="9" width="2" height="1" fill="#181a1b"/>
  <rect x="2" y="9" width="1" height="1" fill="#1a1c1e"/>
  <rect x="3" y="9" width="1" height="1" fill="#10110b"/>
  <rect x="4" y="9" width="1" height="1" fill="#48537d"/>
  <rect x="5" y="9" width="1" height="1" fill="#9698ee"/>
  <rect x="6" y="9" width="1" height="1" fill="#856eb4"/>
  <rect x="7" y="9" width="1" height="1" fill="#9168af"/>
  <rect x="8" y="9" width="1" height="1" fill="#9960a3"/>
  <rect x="9" y="9" width="1" height="1" fill="#9b5b9d"/>
  <rect x="10" y="9" width="1" height="1" fill="#7c497e"/>
  <rect x="11" y="9" width="1" height="1" fill="#9c559d"/>
  <rect x="12" y="9" width="1" height="1" fill="#8c4d8d"/>
  <rect x="13" y="9" width="1" height="1" fill="#000a00"/>
  <rect x="14" y="9" width="1" height="1" fill="#7e4880"/>
  <rect x="15" y="9" width="1" height="1" fill="#ff94ff"/>
  <rect x="16" y="9" width="1" height="1" fill="#ad59ae"/>
  <rect x="17" y="9" width="1" height="1" fill="#07130a"/>
  <rect x="18" y="9" width="1" height="1" fill="#1b1b1e"/>
  <rect x="19" y="9" width="2" height="1" fill="#181a1b"/>
  <rect x="0" y="10" width="2" height="1" fill="#181a1b"/>
  <rect x="2" y="10" width="1" height="1" fill="#191b1e"/>
  <rect x="3" y="10" width="1" height="1" fill="#10120d"/>
  <rect x="4" y="10" width="1" height="1" fill="#3c405d"/>
  <rect x="5" y="10" width="1" height="1" fill="#7c7ac5"/>
  <rect x="6" y="10" width="1" height="1" fill="#060900"/>
  <rect x="7" y="10" width="1" height="1" fill="#1b2228"/>
  <rect x="8" y="10" width="1" height="1" fill="#8c78c6"/>
  <rect x="9" y="10" width="1" height="1" fill="#c27dd9"/>
  <rect x="10" y="10" width="1" height="1" fill="#df7ade"/>
  <rect x="11" y="10" width="1" height="1" fill="#f985fa"/>
  <rect x="12" y="10" width="1" height="1" fill="#683c6a"/>
  <rect x="13" y="10" width="1" height="1" fill="#071108"/>
  <rect x="14" y="10" width="1" height="1" fill="#734275"/>
  <rect x="15" y="10" width="1" height="1" fill="#c368c4"/>
  <rect x="16" y="10" width="1" height="1" fill="#5c375e"/>
  <rect x="17" y="10" width="1" height="1" fill="#0e1611"/>
  <rect x="18" y="10" width="1" height="1" fill="#1b1b1d"/>
  <rect x="19" y="10" width="2" height="1" fill="#181a1b"/>
  <rect x="0" y="11" width="2" height="1" fill="#181a1b"/>
  <rect x="2" y="11" width="1" height="1" fill="#191b1c"/>
  <rect x="3" y="11" width="1" height="1" fill="#141614"/>
  <rect x="4" y="11" width="1" height="1" fill="#292b39"/>
  <rect x="5" y="11" width="1" height="1" fill="#847ac5"/>
  <rect x="6" y="11" width="1" height="1" fill="#19191a"/>
  <rect x="7" y="11" width="1" height="1" fill="#262833"/>
  <rect x="8" y="11" width="1" height="1" fill="#bd94fc"/>
  <rect x="9" y="11" width="1" height="1" fill="#f896ff"/>
  <rect x="10" y="11" width="1" height="1" fill="#ff90ff"/>
  <rect x="11" y="11" width="1" height="1" fill="#ff8cff"/>
  <rect x="12" y="11" width="1" height="1" fill="#432c45"/>
  <rect x="13" y="11" width="1" height="1" fill="#844c86"/>
  <rect x="14" y="11" width="1" height="1" fill="#e87be8"/>
  <rect x="15" y="11" width="1" height="1" fill="#f076f0"/>
  <rect x="16" y="11" width="1" height="1" fill="#4b2f4e"/>
  <rect x="17" y="11" width="1" height="1" fill="#0d1510"/>
  <rect x="18" y="11" width="1" height="1" fill="#1a1b1d"/>
  <rect x="19" y="11" width="2" height="1" fill="#181a1b"/>
  <rect x="0" y="12" width="3" height="1" fill="#181a1b"/>
  <rect x="3" y="12" width="1" height="1" fill="#17191a"/>
  <rect x="4" y="12" width="1" height="1" fill="#1a1c1f"/>
  <rect x="5" y="12" width="1" height="1" fill="#8270b7"/>
  <rect x="6" y="12" width="1" height="1" fill="#25222b"/>
  <rect x="7" y="12" width="1" height="1" fill="#181c1e"/>
  <rect x="8" y="12" width="1" height="1" fill="#b98aec"/>
  <rect x="9" y="12" width="1" height="1" fill="#f28ffa"/>
  <rect x="10" y="12" width="1" height="1" fill="#ca6cc8"/>
  <rect x="11" y="12" width="1" height="1" fill="#a257a3"/>
  <rect x="12" y="12" width="1" height="1" fill="#302432"/>
  <rect x="13" y="12" width="1" height="1" fill="#b662b7"/>
  <rect x="14" y="12" width="1" height="1" fill="#ff90ff"/>
  <rect x="15" y="12" width="1" height="1" fill="#fe7bfe"/>
  <rect x="16" y="12" width="1" height="1" fill="#38283b"/>
  <rect x="17" y="12" width="1" height="1" fill="#111714"/>
  <rect x="18" y="12" width="1" height="1" fill="#1a1b1d"/>
  <rect x="19" y="12" width="2" height="1" fill="#181a1b"/>
  <rect x="0" y="13" width="3" height="1" fill="#181a1b"/>
  <rect x="3" y="13" width="1" height="1" fill="#191b1d"/>
  <rect x="4" y="13" width="1" height="1" fill="#101411"/>
  <rect x="5" y="13" width="1" height="1" fill="#78629f"/>
  <rect x="6" y="13" width="1" height="1" fill="#312c3c"/>
  <rect x="7" y="13" width="1" height="1" fill="#171a1b"/>
  <rect x="8" y="13" width="1" height="1" fill="#996fbc"/>
  <rect x="9" y="13" width="1" height="1" fill="#4c3752"/>
  <rect x="10" y="13" width="1" height="1" fill="#82558d"/>
  <rect x="11" y="13" width="1" height="1" fill="#bf71c0"/>
  <rect x="12" y="13" width="1" height="1" fill="#c36bc3"/>
  <rect x="13" y="13" width="1" height="1" fill="#945195"/>
  <rect x="14" y="13" width="1" height="1" fill="#975498"/>
  <rect x="15" y="13" width="1" height="1" fill="#452d47"/>
  <rect x="16" y="13" width="5" height="1" fill="#181a1b"/>
  <rect x="0" y="14" width="3" height="1" fill="#181a1b"/>
  <rect x="3" y="14" width="1" height="1" fill="#1a1c1e"/>
  <rect x="4" y="14" width="1" height="1" fill="#0c120c"/>
  <rect x="5" y="14" width="1" height="1" fill="#675181"/>
  <rect x="6" y="14" width="1" height="1" fill="#3b3147"/>
  <rect x="7" y="14" width="1" height="1" fill="#25232c"/>
  <rect x="8" y="14" width="1" height="1" fill="#6a5182"/>
  <rect x="9" y="14" width="1" height="1" fill="#201f25"/>
  <rect x="10" y="14" width="1" height="1" fill="#fc96ff"/>
  <rect x="11" y="14" width="1" height="1" fill="#ff9bff"/>
  <rect x="12" y="14" width="1" height="1" fill="#ba65bb"/>
  <rect x="13" y="14" width="1" height="1" fill="#101613"/>
  <rect x="14" y="14" width="1" height="1" fill="#0b140e"/>
  <rect x="15" y="14" width="1" height="1" fill="#0e1611"/>
  <rect x="16" y="14" width="5" height="1" fill="#181a1b"/>
  <rect x="0" y="15" width="3" height="1" fill="#181a1b"/>
  <rect x="3" y="15" width="1" height="1" fill="#1a1b1d"/>
  <rect x="4" y="15" width="1" height="1" fill="#0e130e"/>
  <rect x="5" y="15" width="1" height="1" fill="#4f3e5f"/>
  <rect x="6" y="15" width="1" height="1" fill="#453650"/>
  <rect x="7" y="15" width="1" height="1" fill="#3a3248"/>
  <rect x="8" y="15" width="1" height="1" fill="#463b57"/>
  <rect x="9" y="15" width="1" height="1" fill="#332837"/>
  <rect x="10" y="15" width="1" height="1" fill="#c273cb"/>
  <rect x="11" y="15" width="1" height="1" fill="#543655"/>
  <rect x="12" y="15" width="1" height="1" fill="#1e1d22"/>
  <rect x="13" y="15" width="1" height="1" fill="#171a1a"/>
  <rect x="14" y="15" width="1" height="1" fill="#1c1c1f"/>
  <rect x="15" y="15" width="1" height="1" fill="#1a1b1d"/>
  <rect x="16" y="15" width="5" height="1" fill="#181a1b"/>
  <rect x="0" y="16" width="3" height="1" fill="#181a1b"/>
  <rect x="3" y="16" width="1" height="1" fill="#191b1d"/>
  <rect x="4" y="16" width="1" height="1" fill="#111512"/>
  <rect x="5" y="16" width="1" height="1" fill="#3b2f43"/>
  <rect x="6" y="16" width="1" height="1" fill="#4b3753"/>
  <rect x="7" y="16" width="1" height="1" fill="#433955"/>
  <rect x="8" y="16" width="1" height="1" fill="#292732"/>
  <rect x="9" y="16" width="1" height="1" fill="#754e81"/>
  <rect x="10" y="16" width="1" height="1" fill="#322837"/>
  <rect x="11" y="16" width="1" height="1" fill="#041007"/>
  <rect x="12" y="16" width="1" height="1" fill="#171a1b"/>
  <rect x="13" y="16" width="1" height="1" fill="#191a1c"/>
  <rect x="14" y="16" width="7" height="1" fill="#181a1b"/>
  <rect x="0" y="17" width="4" height="1" fill="#181a1b"/>
  <rect x="4" y="17" width="1" height="1" fill="#141817"/>
  <rect x="5" y="17" width="1" height="1" fill="#28232c"/>
  <rect x="6" y="17" width="1" height="1" fill="#503957"/>
  <rect x="7" y="17" width="1" height="1" fill="#353145"/>
  <rect x="8" y="17" width="1" height="1" fill="#4e3c5b"/>
  <rect x="9" y="17" width="1" height="1" fill="#4a3854"/>
  <rect x="10" y="17" width="1" height="1" fill="#0e140f"/>
  <rect x="11" y="17" width="1" height="1" fill="#1d1d20"/>
  <rect x="12" y="17" width="9" height="1" fill="#181a1b"/>
  <rect x="0" y="18" width="5" height="1" fill="#181a1b"/>
  <rect x="5" y="18" width="1" height="1" fill="#1a1b1d"/>
  <rect x="6" y="18" width="1" height="1" fill="#47334d"/>
  <rect x="7" y="18" width="1" height="1" fill="#413853"/>
  <rect x="8" y="18" width="1" height="1" fill="#433650"/>
  <rect x="9" y="18" width="1" height="1" fill="#121614"/>
  <rect x="10" y="18" width="1" height="1" fill="#1a1b1d"/>
  <rect x="11" y="18" width="10" height="1" fill="#181a1b"/>
  <rect x="0" y="19" width="4" height="1" fill="#181a1b"/>
  <rect x="4" y="19" width="1" height="1" fill="#191a1c"/>
  <rect x="5" y="19" width="1" height="1" fill="#151816"/>
  <rect x="6" y="19" width="1" height="1" fill="#392d40"/>
  <rect x="7" y="19" width="1" height="1" fill="#3d354d"/>
  <rect x="8" y="19" width="2" height="1" fill="#171a1a"/>
  <rect x="10" y="19" width="11" height="1" fill="#181a1b"/>
  <rect x="0" y="20" width="5" height="1" fill="#181a1b"/>
  <rect x="5" y="20" width="1" height="1" fill="#17191a"/>
  <rect x="6" y="20" width="1" height="1" fill="#201f25"/>
  <rect x="7" y="20" width="1" height="1" fill="#1b1c1f"/>
  <rect x="8" y="20" width="1" height="1" fill="#171919"/>
  <rect x="9" y="20" width="1" height="1" fill="#191a1c"/>
  <rect x="10" y="20" width="11" height="1" fill="#181a1b"/>
  <rect x="0" y="21" width="6" height="1" fill="#181a1b"/>
  <rect x="6" y="21" width="1" height="1" fill="#171919"/>
  <rect x="7" y="21" width="1" height="1" fill="#171a1a"/>
  <rect x="8" y="21" width="1" height="1" fill="#181a1c"/>
  <rect x="9" y="21" width="12" height="1" fill="#181a1b"/>
  <rect x="0" y="22" width="21" height="1" fill="#181a1b"/>
</svg>